<svg width="23" height="16" viewBox="0 0 23 16" fill="none" xmlns="http://www.w3.org/2000/svg">
<path d="M22.6867 7.23553L15.8423 0.316606C15.4247 -0.105535 14.7475 -0.105535 14.3299 0.316606C13.9122 0.738833 13.9122 1.42329 14.3299 1.84552L19.3486 6.91891H1.06944C0.478852 6.91891 0 7.40297 0 7.99999C0 8.59692 0.478852 9.08107 1.06944 9.08107H19.3486L14.3301 14.1545C13.9124 14.5767 13.9124 15.2611 14.3301 15.6834C14.5388 15.8943 14.8126 16 15.0863 16C15.36 16 15.6337 15.8943 15.8425 15.6834L22.6867 8.76444C23.1044 8.34222 23.1044 7.65776 22.6867 7.23553Z" fill="white"/>
</svg>
