<svg width="64" height="26" viewBox="0 0 64 26" fill="none" xmlns="http://www.w3.org/2000/svg">
<path d="M7.84 26V5.76H0.96V-1.43051e-06H21.6V5.76H14.72V26H7.84ZM21.6581 26V-1.43051e-06H28.6981L34.4581 11.6L36.9381 17.44H37.0981C36.9381 16.0267 36.7515 14.4267 36.5381 12.64C36.3248 10.8267 36.2181 9.12 36.2181 7.52V-1.43051e-06H42.7781V26H35.7381L29.9781 14.36L27.4981 8.56H27.3381C27.4981 10.0267 27.6848 11.6533 27.8981 13.44C28.1115 15.2 28.2181 16.88 28.2181 18.48V26H21.6581ZM49.6931 26V5.76H42.8131V-1.43051e-06H63.4531V5.76H56.5731V26H49.6931Z" fill="black"/>
</svg>
